<?xml version="1.0" encoding="UTF-8"?>
<svg version="1.1" xmlns="http://www.w3.org/2000/svg" width="465" height="408">
<path d="M0 0 C153.45 0 306.9 0 465 0 C465 134.64 465 269.28 465 408 C311.55 408 158.1 408 0 408 C0 273.36 0 138.72 0 0 Z " fill="#FEFEFE" transform="translate(0,0)"/>
<path d="M0 0 C6.78732567 6.3589993 13.84955679 14.56742439 17.4140625 23.26171875 C17.21579347 28.31757896 12.68812385 31.31960146 9.30078125 34.60546875 C4.05259215 39.43465493 -1.4098138 44.02770517 -7.24609375 48.1328125 C-8.05949219 48.71160156 -8.87289062 49.29039062 -9.7109375 49.88671875 C-10.43539062 50.37398438 -11.15984375 50.86125 -11.90625 51.36328125 C-14.32852341 54.10101352 -14.30682428 56.70091069 -14.5859375 60.26171875 C-13.54252197 60.23029785 -13.54252197 60.23029785 -12.47802734 60.19824219 C-9.30581292 60.11474895 -6.13383019 60.06295346 -2.9609375 60.01171875 C-1.86652344 59.97820312 -0.77210938 59.9446875 0.35546875 59.91015625 C6.71011855 59.83313019 10.61525836 59.92757344 15.4140625 64.26171875 C19.66352526 69.0973143 19.59655741 73.75791639 19.6015625 79.94921875 C19.61380859 80.72716797 19.62605469 81.50511719 19.63867188 82.30664062 C19.66454628 92.6477796 16.91823137 101.70394487 9.9140625 109.44921875 C1.10086453 117.80288312 -11.85859097 120.73771491 -23.7109375 120.44140625 C-41.19388347 119.34872213 -56.1281956 112.2793767 -68.2734375 99.63671875 C-84.17935541 80.99919419 -87.99872252 59.18040584 -86.5859375 35.26171875 C-84.85861891 20.24117001 -77.78810985 6.41145771 -66.5859375 -3.73828125 C-45.05606951 -20.1968075 -20.22889384 -16.85741154 0 0 Z " fill="#FEFEFE" transform="translate(180.5859375,157.73828125)"/>
<path d="M0 0 C17.47550802 -0.80656191 34.58546268 5.91598724 47.71875 17.21875 C48.50765625 17.73050781 49.2965625 18.24226563 50.109375 18.76953125 C52.85165596 20.81716157 54.2861796 22.08613561 55.71875 25.21875 C55.57737212 31.07038063 53.56842 36.71973109 51.71875 42.21875 C50.72875 42.21875 49.73875 42.21875 48.71875 42.21875 C47.02734375 40.015625 47.02734375 40.015625 45.15625 36.96875 C35.77932244 22.44908338 23.56164177 8.54875581 5.86328125 4.578125 C-10.17444046 2.74524252 -22.7638086 4.90252368 -35.84375 15.0546875 C-47.86756022 25.72967285 -53.73646017 41.51338671 -55.28125 57.21875 C-55.89172084 67.63576939 -55.83524827 77.30416255 -52.28125 87.21875 C-51.99121094 88.20101562 -51.70117188 89.18328125 -51.40234375 90.1953125 C-46.20334451 107.38028907 -35.17697459 120.71257596 -19.7109375 129.71484375 C-6.23685799 136.83202995 9.80144866 139.00295786 24.75 135.41015625 C33.5583438 132.37966654 41.59918699 126.58450892 46.21875 118.34375 C50.08991227 109.08582892 52.13352874 95.71456914 48.53125 86.15625 C46.29613221 82.53381772 44.02238391 79.94373146 39.87011719 78.63696289 C37.47166763 78.17071867 35.17561423 78.00654299 32.734375 77.90234375 C31.79980469 77.86044922 30.86523438 77.81855469 29.90234375 77.77539062 C28.93425781 77.73607422 27.96617187 77.69675781 26.96875 77.65625 C25.98519531 77.61306641 25.00164062 77.56988281 23.98828125 77.52539062 C21.56523725 77.41952948 19.1420946 77.31744829 16.71875 77.21875 C16.71875 76.55875 16.71875 75.89875 16.71875 75.21875 C34.20875 75.21875 51.69875 75.21875 69.71875 75.21875 C69.71875 75.87875 69.71875 76.53875 69.71875 77.21875 C69.05875 77.21875 68.39875 77.21875 67.71875 77.21875 C67.62956299 78.06300537 67.62956299 78.06300537 67.53857422 78.92431641 C65.66540072 95.85187135 62.58094735 109.28872276 50.71875 122.21875 C50.15285156 122.86457031 49.58695312 123.51039063 49.00390625 124.17578125 C40.11997731 133.77042451 25.03817604 141.39559981 11.9519043 142.43945312 C-13.47942897 143.38113268 -13.47942897 143.38113268 -25.28125 138.21875 C-26.18593018 137.82405518 -26.18593018 137.82405518 -27.10888672 137.42138672 C-45.16638466 129.30033839 -57.86941317 115.64144059 -65.28125 97.21875 C-65.75433594 97.82460937 -66.22742188 98.43046875 -66.71484375 99.0546875 C-74.22723824 108.57331599 -82.29685018 117.32053005 -90.84375 125.90625 C-91.55200928 126.61918213 -92.26026855 127.33211426 -92.98999023 128.06665039 C-97.02601269 132.09051756 -101.16827014 135.9187016 -105.48413086 139.63989258 C-107.86120846 141.72827199 -110.07446799 143.95232524 -112.28125 146.21875 C-115.84542096 149.82106958 -119.47460959 153.25728867 -123.328125 156.546875 C-124.72988995 157.7467858 -126.11333872 158.96821998 -127.484375 160.203125 C-128.20109375 160.84765625 -128.9178125 161.4921875 -129.65625 162.15625 C-130.30335938 162.74277344 -130.95046875 163.32929688 -131.6171875 163.93359375 C-133.28125 165.21875 -133.28125 165.21875 -135.28125 165.21875 C-135.28125 165.87875 -135.28125 166.53875 -135.28125 167.21875 C-127.55206655 167.18043091 -119.82335625 167.12069587 -112.09457111 167.03484726 C-108.50435577 166.99561511 -104.91437679 166.96330971 -101.32397461 166.94775391 C-97.84825401 166.93242473 -94.37318432 166.89770051 -90.89775658 166.85044098 C-88.95011244 166.82874418 -87.00228372 166.82629034 -85.05451965 166.82440186 C-73.77021317 166.6420582 -63.02000372 164.76585548 -54.28125 157.21875 C-53.95125 156.55875 -53.62125 155.89875 -53.28125 155.21875 C-52.62125 155.21875 -51.96125 155.21875 -51.28125 155.21875 C-52.92082992 161.16469645 -55.90601266 166.25487503 -58.90625 171.59375 C-61.566875 176.358125 -61.566875 176.358125 -64.28125 181.21875 C-75.17125 181.21875 -86.06125 181.21875 -97.28125 181.21875 C-97.673125 184.43625 -98.065 187.65375 -98.46875 190.96875 C-100.72816011 207.53818179 -107.24858647 221.32074688 -120.28125 232.21875 C-123.86202873 234.7054019 -127.52421747 237.00873087 -131.28125 239.21875 C-118.99306052 241.11804186 -107.53734374 239.12075175 -96.234375 233.98828125 C-94.28125 233.21875 -94.28125 233.21875 -91.28125 233.21875 C-91.384375 232.331875 -91.4875 231.445 -91.59375 230.53125 C-91.16816567 226.02005615 -89.73781879 225.11098103 -86.28125 222.21875 C-80.17432883 217.22982818 -73.7789808 212.6817008 -67.28125 208.21875 C-66.62125 208.54875 -65.96125 208.87875 -65.28125 209.21875 C-67.07179722 210.72010231 -68.8636924 212.21980097 -70.65625 213.71875 C-71.19411133 214.17000244 -71.73197266 214.62125488 -72.28613281 215.08618164 C-76.60189209 218.69259673 -81.02258891 222.14343764 -85.515625 225.52734375 C-86.09828125 226.08550781 -86.6809375 226.64367187 -87.28125 227.21875 C-87.28125 228.20875 -87.28125 229.19875 -87.28125 230.21875 C-86.51039063 229.77402344 -85.73953125 229.32929688 -84.9453125 228.87109375 C-83.94242188 228.30519531 -82.93953125 227.73929688 -81.90625 227.15625 C-80.90851563 226.58777344 -79.91078125 226.01929688 -78.8828125 225.43359375 C-78.02429688 225.03269531 -77.16578125 224.63179687 -76.28125 224.21875 C-75.62125 224.54875 -74.96125 224.87875 -74.28125 225.21875 C-75.35994393 226.18230244 -76.44443743 227.13936417 -77.53125 228.09375 C-78.13453125 228.62742187 -78.7378125 229.16109375 -79.359375 229.7109375 C-81.25543746 231.1984987 -83.09415005 232.22197436 -85.28125 233.21875 C-78.87771678 233.4549459 -73.43495839 233.042071 -67.28125 231.21875 C-70.83454973 235.24733186 -75.07909393 236.37027 -80.28125 237.21875 C-82.32841121 237.07405536 -84.37158866 236.86200137 -86.40625 236.59375 C-94.68766593 235.63401601 -101.62598839 238.37873639 -109.28125 241.21875 C-109.28125 241.54875 -109.28125 241.87875 -109.28125 242.21875 C-108.26546875 242.40050781 -107.2496875 242.58226562 -106.203125 242.76953125 C-98.67577269 244.13680602 -91.23593787 245.62246719 -83.83203125 247.5703125 C-79.55327243 248.65802148 -75.62485771 249.34355741 -71.19921875 249.31640625 C-70.26787109 249.31318359 -69.33652344 249.30996094 -68.37695312 249.30664062 C-67.41724609 249.29826172 -66.45753906 249.28988281 -65.46875 249.28125 C-64.48970703 249.27673828 -63.51066406 249.27222656 -62.50195312 249.26757812 C-60.09498889 249.25583684 -57.68815143 249.23941419 -55.28125 249.21875 C-57.92284749 251.86034749 -59.89805252 252.15017998 -63.57128906 252.33227539 C-64.38823242 252.32703857 -65.20517578 252.32180176 -66.046875 252.31640625 C-66.93632812 252.31318359 -67.82578125 252.30996094 -68.7421875 252.30664062 C-69.66257813 252.29826172 -70.58296875 252.28988281 -71.53125 252.28125 C-72.46710938 252.27673828 -73.40296875 252.27222656 -74.3671875 252.26757812 C-76.67194041 252.25581918 -78.97656227 252.23938426 -81.28125 252.21875 C-69.29822759 262.71902468 -56.94081485 266.08360432 -41.34130859 265.39794922 C-35.27362356 264.87013684 -30.84037712 262.89195959 -26.71875 258.46875 C-24.99012013 254.56054334 -24.57439067 251.46928977 -24.28125 247.21875 C-23.95125 247.21875 -23.62125 247.21875 -23.28125 247.21875 C-22.92863579 252.17493861 -22.7175173 256.04792054 -24.90625 260.59375 C-30.16336088 266.40424097 -35.73495822 268.84084665 -43.3828125 269.4765625 C-57.61004398 269.94975202 -69.44410922 265.73717016 -80.296875 256.50390625 C-81.96875 254.90625 -81.96875 254.90625 -84.28125 252.21875 C-84.28125 251.55875 -84.28125 250.89875 -84.28125 250.21875 C-85.333125 250.13625 -86.385 250.05375 -87.46875 249.96875 C-92.58571965 249.34740369 -97.3438753 247.7480505 -102.23046875 246.15625 C-106.41504026 244.87033814 -110.21344235 244.0820075 -114.59375 244.15625 C-115.810625 244.176875 -117.0275 244.1975 -118.28125 244.21875 C-117.40480567 246.39603073 -117.40480567 246.39603073 -115.28125 248.21875 C-112.98502513 248.43619554 -110.83335115 248.34294061 -108.53515625 248.1640625 C-105.95551595 248.22665343 -104.48456081 248.92386574 -102.28125 250.21875 C-105.4776586 251.28421953 -107.93872276 251.29302838 -111.28125 251.21875 C-110.848125 252.0540625 -110.848125 252.0540625 -110.40625 252.90625 C-109.2399247 255.30369645 -108.2472619 257.73471939 -107.28125 260.21875 C-110.18927461 257.99946806 -112.23437762 256.28905857 -114.28125 253.21875 C-117.16675667 257.54701 -117.10075666 261.13780872 -116.28125 266.21875 C-114.90995324 269.5034841 -113.33993171 272.55206279 -111.59375 275.65234375 C-110.28125 278.21875 -110.28125 278.21875 -110.28125 281.21875 C-115.94412347 275.02440944 -119.8981519 269.39057442 -120.53125 260.84375 C-120.2593737 256.90154365 -119.18712718 254.63344662 -117.28125 251.21875 C-117.06639904 249.1372509 -117.06639904 249.1372509 -118.58203125 247.67578125 C-125.51623255 242.00723999 -132.19155072 242.85164837 -140.62109375 243.65234375 C-145.27792709 244.18308234 -149.87331077 244.95864636 -154.484375 245.79296875 C-171.60444888 248.39923698 -189.90157177 243.72795435 -204.28125 234.21875 C-219.04057876 223.2494813 -230.5400288 206.63578216 -233.97949219 188.38623047 C-236.82772782 167.92778715 -232.81895042 150.22277503 -221.28125 133.21875 C-209.94923897 118.43515395 -194.52933947 108.20881362 -176.28125 104.21875 C-172.37451259 103.80110627 -168.52035981 103.74146608 -164.59375 103.78125 C-163.54155273 103.78882324 -162.48935547 103.79639648 -161.40527344 103.80419922 C-144.24809648 104.16482107 -129.2737995 109.93379272 -116.28125 121.21875 C-115.57355469 121.7859375 -114.86585938 122.353125 -114.13671875 122.9375 C-109.4250607 127.0265129 -109.4250607 127.0265129 -109.0390625 130.2265625 C-109.28437446 132.30775752 -109.7367908 134.19593284 -110.28125 136.21875 C-110.62289581 138.21734682 -110.95700565 140.21725638 -111.28125 142.21875 C-85.35565141 117.73692334 -85.35565141 117.73692334 -74.9453125 84.5703125 C-74.70114852 71.7087737 -76.05820719 60.95172066 -85.28125 51.21875 C-91.80895373 45.20886893 -99.84364854 42.57476304 -108.6640625 42.86328125 C-118.28482674 44.16998206 -126.73260836 48.67910058 -132.8984375 56.15234375 C-134.94174962 59.2057678 -136.18453931 62.44063031 -137.421875 65.88671875 C-138.23557703 68.09481016 -139.18980341 70.13638479 -140.28125 72.21875 C-141.00988528 65.51530541 -138.94434007 60.80709205 -135.28125 55.21875 C-128.48417374 46.94854314 -121.57355035 42.77826832 -111.28125 40.21875 C-97.05526154 39.01103102 -84.46632259 41.71318571 -72.28125 49.21875 C-69.9375 51.41015625 -69.9375 51.41015625 -68.28125 53.21875 C-67.78818359 51.82076172 -67.78818359 51.82076172 -67.28515625 50.39453125 C-60.31131254 31.40140207 -48.3128401 16.73715939 -30.28125 7.21875 C-20.44724934 2.732874 -10.68171908 1.02427443 0 0 Z M-206.28125 123.21875 C-219.70251271 140.74470472 -222.44082668 161.15409991 -220.00878906 182.62402344 C-217.67115843 197.19944842 -210.35957072 211.50207115 -200.28125 222.21875 C-199.32025391 223.25902344 -199.32025391 223.25902344 -198.33984375 224.3203125 C-186.87075086 235.59353853 -170.83060597 240.96934507 -155.03125 241.46875 C-143.69645531 241.32765297 -131.93843641 237.78904467 -123.46875 230.03125 C-115.7006839 221.62043611 -114.1040449 212.24717662 -114.03125 201.21875 C-114.010625 200.43757813 -113.99 199.65640625 -113.96875 198.8515625 C-113.9352845 193.88193503 -114.53751987 190.52660182 -117.28125 186.21875 C-121.60014448 182.32121108 -123.97403136 181.09081727 -129.7265625 181.12109375 C-130.80292969 181.12431641 -131.87929687 181.12753906 -132.98828125 181.13085938 C-134.68017578 181.14342773 -134.68017578 181.14342773 -136.40625 181.15625 C-137.54191406 181.16076172 -138.67757812 181.16527344 -139.84765625 181.16992188 C-142.65890638 181.18173385 -145.4700523 181.19820493 -148.28125 181.21875 C-148.11787485 176.78039183 -147.86712961 174.79680629 -144.6484375 171.62109375 C-143.49691793 170.78199024 -142.33184498 169.961277 -141.15625 169.15625 C-135.44010269 164.97532645 -130.17382578 160.52707385 -125.03125 155.65625 C-124.38784668 155.04837646 -123.74444336 154.44050293 -123.08154297 153.81420898 C-120.79032263 151.63850459 -118.51551619 149.45301619 -116.28125 147.21875 C-116.87769966 138.13074073 -125.88203083 128.32262059 -132.28125 122.21875 C-143.30693732 112.84057917 -155.83125815 105.53066021 -170.703125 105.97265625 C-185.19839337 107.3562955 -196.3359063 112.53259857 -206.28125 123.21875 Z " fill="#423630" transform="translate(314.28125,36.78125)"/>
<path d="M0 0 C0.66 0 1.32 0 2 0 C0.36042008 5.94594645 -2.62476266 11.03612503 -5.625 16.375 C-7.39875 19.55125 -9.1725 22.7275 -11 26 C-21.89 26 -32.78 26 -44 26 C-44.391875 29.2175 -44.78375 32.435 -45.1875 35.75 C-47.60845311 53.50411078 -55.07351832 67.74970445 -69.40234375 78.86328125 C-73.79650427 81.96127124 -73.79650427 81.96127124 -76 83 C-77.485 82.505 -77.485 82.505 -79 82 C-78.34 81.360625 -77.68 80.72125 -77 80.0625 C-66.25859454 69.22902535 -61.851889 61.43618411 -61.75 46 C-61.729375 45.21882813 -61.70875 44.43765625 -61.6875 43.6328125 C-61.65420994 38.68923802 -62.10062764 35.19068945 -65 31 C-70.3275175 25.86213523 -76.38626508 26.34054898 -83.375 26.25 C-85.05142578 26.20552734 -85.05142578 26.20552734 -86.76171875 26.16015625 C-89.5078839 26.08974176 -92.25321404 26.03690377 -95 26 C-95.3359375 22.80859375 -95.3359375 22.80859375 -95 19 C-92.6640625 16.34765625 -92.6640625 16.34765625 -89.625 14.0625 C-88.62726563 13.29035156 -87.62953125 12.51820313 -86.6015625 11.72265625 C-84 10 -84 10 -82 10 C-82 10.66 -82 11.32 -82 12 C-74.27081655 11.96168091 -66.54210625 11.90194587 -58.81332111 11.81609726 C-55.22310577 11.77686511 -51.63312679 11.74455971 -48.04272461 11.72900391 C-44.56700401 11.71367473 -41.09193432 11.67895051 -37.61650658 11.63169098 C-35.66886244 11.60999418 -33.72103372 11.60754034 -31.77326965 11.60565186 C-20.48896317 11.4233082 -9.73875372 9.54710548 -1 2 C-0.67 1.34 -0.34 0.68 0 0 Z " fill="#3F332D" transform="translate(261,192)"/>
<path d="M0 0 C5.38943108 0.10548709 9.70282135 0.20727971 14.375 3.0625 C21.46443636 10.99591688 25.69516096 20.13614571 25.29296875 30.95703125 C24.84438516 34.08515416 23.7256996 36.3794932 22 39 C18.46569344 41.35620437 17.16428713 41.48991613 13 41 C9.8125 39.125 9.8125 39.125 7 37 C6.01 36.34 5.02 35.68 4 35 C4 34.34 4 33.68 4 33 C3.34 33 2.68 33 2 33 C1.608125 32.05125 1.21625 31.1025 0.8125 30.125 C-0.12520612 27.88442337 -1.12299336 25.78073504 -2.3125 23.66015625 C-5.56745109 17.8067925 -7.38901776 12.73612155 -6 6 C-4 3.375 -4 3.375 -2 2 C-0.68 3.98 0.64 5.96 2 8 C1.67 7.4225 1.34 6.845 1 6.25 C0 4 0 4 0 0 Z " fill="#F7F7F7" transform="translate(203,287)"/>
<path d="M0 0 C0.66 0.33 1.32 0.66 2 1 C0.20945278 2.50135231 -1.5824424 4.00105097 -3.375 5.5 C-3.91286133 5.95125244 -4.45072266 6.40250488 -5.00488281 6.86743164 C-9.32064209 10.47384673 -13.74133891 13.92468764 -18.234375 17.30859375 C-18.81703125 17.86675781 -19.3996875 18.42492187 -20 19 C-20 19.99 -20 20.98 -20 22 C-19.22914063 21.55527344 -18.45828125 21.11054688 -17.6640625 20.65234375 C-16.66117188 20.08644531 -15.65828125 19.52054687 -14.625 18.9375 C-13.62726563 18.36902344 -12.62953125 17.80054688 -11.6015625 17.21484375 C-10.74304688 16.81394531 -9.88453125 16.41304688 -9 16 C-8.34 16.33 -7.68 16.66 -7 17 C-8.07869393 17.96355244 -9.16318743 18.92061417 -10.25 19.875 C-10.85328125 20.40867187 -11.4565625 20.94234375 -12.078125 21.4921875 C-13.97418746 22.9797487 -15.81290005 24.00322436 -18 25 C-11.59646678 25.2361959 -6.15370839 24.823321 0 23 C-3.55329973 27.02858186 -7.79784393 28.15152 -13 29 C-15.04716121 28.85530536 -17.09033866 28.64325137 -19.125 28.375 C-27.40641593 27.41526601 -34.34473839 30.15998639 -42 33 C-42 33.33 -42 33.66 -42 34 C-40.98421875 34.18175781 -39.9684375 34.36351562 -38.921875 34.55078125 C-31.39452269 35.91805602 -23.95468787 37.40371719 -16.55078125 39.3515625 C-12.27202243 40.43927148 -8.34360771 41.12480741 -3.91796875 41.09765625 C-2.98662109 41.09443359 -2.05527344 41.09121094 -1.09570312 41.08789062 C-0.13599609 41.07951172 0.82371094 41.07113281 1.8125 41.0625 C2.79154297 41.05798828 3.77058594 41.05347656 4.77929688 41.04882812 C7.18626111 41.03708684 9.59309857 41.02066419 12 41 C9.35840251 43.64159749 7.38319748 43.93142998 3.70996094 44.11352539 C2.4845459 44.10567017 2.4845459 44.10567017 1.234375 44.09765625 C0.34492188 44.09443359 -0.54453125 44.09121094 -1.4609375 44.08789062 C-2.38132813 44.07951172 -3.30171875 44.07113281 -4.25 44.0625 C-5.65378906 44.05573242 -5.65378906 44.05573242 -7.0859375 44.04882812 C-9.39069041 44.03706918 -11.69531227 44.02063426 -14 44 C-2.01697759 54.50027468 10.34043515 57.86485432 25.93994141 57.17919922 C32.00762644 56.65138684 36.44087288 54.67320959 40.5625 50.25 C42.29112987 46.34179334 42.70685933 43.25053977 43 39 C43.33 39 43.66 39 44 39 C44.35261421 43.95618861 44.5637327 47.82917054 42.375 52.375 C37.11788912 58.18549097 31.54629178 60.62209665 23.8984375 61.2578125 C9.67120602 61.73100202 -2.16285922 57.51842016 -13.015625 48.28515625 C-14.6875 46.6875 -14.6875 46.6875 -17 44 C-17 43.34 -17 42.68 -17 42 C-18.051875 41.9175 -19.10375 41.835 -20.1875 41.75 C-25.30446965 41.12865369 -30.0626253 39.5293005 -34.94921875 37.9375 C-39.13379026 36.65158814 -42.93219235 35.8632575 -47.3125 35.9375 C-48.529375 35.958125 -49.74625 35.97875 -51 36 C-50.12355567 38.17728073 -50.12355567 38.17728073 -48 40 C-45.70377513 40.21744554 -43.55210115 40.12419061 -41.25390625 39.9453125 C-38.67426595 40.00790343 -37.20331081 40.70511574 -35 42 C-38.1964086 43.06546953 -40.65747276 43.07427838 -44 43 C-43.71125 43.556875 -43.4225 44.11375 -43.125 44.6875 C-41.9586747 47.08494645 -40.9660119 49.51596939 -40 52 C-42.90802461 49.78071806 -44.95312762 48.07030857 -47 45 C-49.88550667 49.32826 -49.81950666 52.91905872 -49 58 C-47.62870324 61.2847341 -46.05868171 64.33331279 -44.3125 67.43359375 C-43 70 -43 70 -43 73 C-48.66287347 66.80565944 -52.6169019 61.17182442 -53.25 52.625 C-52.9781237 48.68279365 -51.90587718 46.41469662 -50 43 C-50 42.34 -50 41.68 -50 41 C-51.79526111 39.71050833 -51.79526111 39.71050833 -54 38.5 C-56.25 37.21875 -56.25 37.21875 -58 36 C-58 35.34 -58 34.68 -58 34 C-55.03 33.505 -55.03 33.505 -52 33 C-52 32.67 -52 32.34 -52 32 C-51.03320312 31.82984375 -50.06640625 31.6596875 -49.0703125 31.484375 C-42.02655287 30.19108563 -35.51778921 28.75042469 -28.953125 25.76953125 C-27 25 -27 25 -24 25 C-24.1546875 23.6696875 -24.1546875 23.6696875 -24.3125 22.3125 C-23.88691567 17.80130615 -22.45656879 16.89223103 -19 14 C-12.89307883 9.01107818 -6.4977308 4.4629508 0 0 Z " fill="#4F443E" transform="translate(247,245)"/>
<path d="M0 0 C0.66 0.66 1.32 1.32 2 2 C1.67189333 5.84553832 0.36704846 8.36413847 -1.80078125 11.50390625 C-2.36603516 12.32697266 -2.93128906 13.15003906 -3.51367188 13.99804688 C-4.4040918 15.26745117 -4.4040918 15.26745117 -5.3125 16.5625 C-5.89451172 17.41263672 -6.47652344 18.26277344 -7.07617188 19.13867188 C-12.51091459 26.9861203 -16.40342865 31.20313851 -26 33 C-29.68459844 33.21838099 -33.31502017 33.18915296 -37 33 C-33.68125269 29.51374494 -29.86669767 26.85248188 -26 24 C-32.435 26.97 -32.435 26.97 -39 30 C-37.8781287 24.39064352 -36.15446337 22.89975795 -31.9375 19.5625 C-31.34839844 19.08022949 -30.75929687 18.59795898 -30.15234375 18.10107422 C-26.3941142 15.04442206 -22.5520586 12.11156437 -18.62890625 9.26953125 C-16.74937703 7.8686602 -16.74937703 7.8686602 -14.4375 5.3125 C-10.41363268 1.49498485 -5.61733565 -0.80247652 0 0 Z " fill="#F8F7F7" transform="translate(265,238)"/>
<path d="M0 0 C3.8026029 2.0050088 5.61790841 3.42686262 8 7 C8.77286121 11.7180481 8.42364132 15.19654232 6.1875 19.4375 C4.00676412 21.99207632 2.35209105 23.72748552 -1.015625 24.40625 C-5.64796642 24.60061398 -8.37102167 24.20914931 -12 21.1875 C-15.10714102 18.2745553 -15.88109114 16.03054349 -16.375 11.75 C-15.90550525 7.05505254 -14.17804115 4.40917142 -11 1 C-7.53081128 -0.73459436 -3.79303468 -0.47173877 0 0 Z " fill="#F7F7F7" transform="translate(238,339)"/>
<path d="M0 0 C6.68530559 1.5136541 6.68530559 1.5136541 8.375 4.125 C9.81130254 6.21947172 9.81130254 6.21947172 12.03515625 6.1875 C13.60701065 6.14660623 15.17844884 6.06732885 16.74609375 5.9453125 C19.32573405 6.00790343 20.79668919 6.70511574 23 8 C19.8035914 9.06546953 17.34252724 9.07427838 14 9 C14.28875 9.556875 14.5775 10.11375 14.875 10.6875 C16.0413253 13.08494645 17.0339881 15.51596939 18 18 C15.09197539 15.78071806 13.04687238 14.07030857 11 11 C8.11449333 15.32826 8.18049334 18.91905872 9 24 C10.37129676 27.2847341 11.94131829 30.33331279 13.6875 33.43359375 C15 36 15 36 15 39 C9.33712653 32.80565944 5.3830981 27.17182442 4.75 18.625 C5.0218763 14.68279365 6.09412282 12.41469662 8 9 C8 8.34 8 7.68 8 7 C6.20473889 5.71050833 6.20473889 5.71050833 4 4.5 C1.75 3.21875 1.75 3.21875 0 2 C0 1.34 0 0.68 0 0 Z " fill="#504640" transform="translate(189,279)"/>
<path d="M0 0 C0.99 0 1.98 0 3 0 C3 3.3 3 6.6 3 10 C7.455 9.505 7.455 9.505 12 9 C12.23428313 4.2102679 12.23428313 4.2102679 10 0 C13.875 1.875 13.875 1.875 15 3 C15.3125 5.375 15.3125 5.375 15 8 C13 9.8125 13 9.8125 11 11 C12.41292095 15.8274799 14.42974154 19.7162359 17 24 C15.68 24 14.36 24 13 24 C12.41992188 22.84371094 12.41992188 22.84371094 11.828125 21.6640625 C11.30734375 20.66117187 10.7865625 19.65828125 10.25 18.625 C9.73953125 17.62726563 9.2290625 16.62953125 8.703125 15.6015625 C7.05528271 12.60815643 7.05528271 12.60815643 3 11 C3 15.29 3 19.58 3 24 C1.68 23.67 0.36 23.34 -1 23 C-0.67 15.41 -0.34 7.82 0 0 Z " fill="#7C7370" transform="translate(257,339)"/>
<path d="M0 0 C0.33 0 0.66 0 1 0 C1.35261421 4.95618861 1.5637327 8.82917054 -0.625 13.375 C-5.88211088 19.18549097 -11.45370822 21.62209665 -19.1015625 22.2578125 C-28.25929121 22.56239328 -36.7400491 21.12997545 -45 17 C-45 16.34 -45 15.68 -45 15 C-41.8213131 15.46517369 -38.87137291 16.04088392 -35.8046875 17.015625 C-26.65279294 19.3834663 -15.49294367 19.44193348 -6.890625 15.2578125 C-3.22745018 12.82074165 -1.44219597 10.13023103 -0.55078125 5.8359375 C-0.28738648 3.89981494 -0.13443632 1.94932662 0 0 Z " fill="#514741" transform="translate(290,284)"/>
<path d="M0 0 C1.18916016 -0.01836914 1.18916016 -0.01836914 2.40234375 -0.03710938 C6.32940758 -0.04707654 8.28490906 -0.03922729 11.625 2.1875 C10.82578125 2.16429687 10.0265625 2.14109375 9.203125 2.1171875 C2.6767975 2.00994738 -3.32717513 2.4092932 -9.73046875 3.609375 C-14.67795242 4.39418484 -19.63759524 4.85868776 -24.625 5.3125 C-25.56013428 5.39999512 -26.49526855 5.48749023 -27.45874023 5.57763672 C-32.78824773 6.04890533 -38.02510446 6.27540908 -43.375 6.1875 C-43.375 5.8575 -43.375 5.5275 -43.375 5.1875 C-39.39641997 4.53801881 -35.41703771 3.893585 -31.4375 3.25 C-30.32052734 3.06759766 -29.20355469 2.88519531 -28.05273438 2.69726562 C-18.65578251 1.18162823 -9.52516473 0.00797752 0 0 Z " fill="#6C635F" transform="translate(270.375,274.8125)"/>
<path d="M0 0 C6.25925926 -0.48148148 6.25925926 -0.48148148 9.5 1.625 C11 4 11 4 10.875 7.1875 C10.441875 8.5796875 10.441875 8.5796875 10 10 C7.04335481 11.4783226 4.25770263 11.06032783 1 11 C0.67 7.37 0.34 3.74 0 0 Z " fill="#F8F8F8" transform="translate(259,338)"/>
<path d="M0 0 C3.63 0 7.26 0 11 0 C11 7.92 11 15.84 11 24 C10.01 24 9.02 24 8 24 C8 16.41 8 8.82 8 1 C5.36 1.33 2.72 1.66 0 2 C0 1.34 0 0.68 0 0 Z " fill="#6F6662" transform="translate(134,339)"/>
<path d="M0 0 C0.99 0 1.98 0 3 0 C3 7.92 3 15.84 3 24 C2.01 24 1.02 24 0 24 C0 16.08 0 8.16 0 0 Z " fill="#665E58" transform="translate(201,339)"/>
<path d="M0 0 C3.35509866 0.56405209 4.74751848 1.43663809 6.83984375 4.09765625 C7.34580078 4.73509766 7.85175781 5.37253906 8.37304688 6.02929688 C8.88931641 6.70025391 9.40558594 7.37121094 9.9375 8.0625 C10.44990234 8.70638672 10.96230469 9.35027344 11.49023438 10.01367188 C14.99728894 14.48327254 18.08277544 19.12717551 21 24 C16.44709409 23.17514173 14.78414902 20.59845816 12.1875 17 C11.3089231 15.81746357 10.43001484 14.63517326 9.55078125 13.453125 C9.12104004 12.86853516 8.69129883 12.28394531 8.24853516 11.68164062 C5.96269408 8.60286211 3.56013334 5.61509924 1.1796875 2.609375 C0 1 0 1 0 0 Z " fill="#524842" transform="translate(298,339)"/>
<path d="M0 0 C3.3589884 5.0384826 3.58688942 10.05903171 3 16 C1.44728802 20.06662662 0.63720598 21.57519602 -3 24 C-6.0625 24.25 -6.0625 24.25 -9 24 C-9.66 23.34 -10.32 22.68 -11 22 C-7.97265625 21.75585938 -7.97265625 21.75585938 -4.9453125 21.51171875 C-2.60480784 21.12606964 -2.60480784 21.12606964 -1 18 C-0.63648496 15.97457852 -0.63648496 15.97457852 -0.5859375 13.76953125 C-0.54726562 12.96708984 -0.50859375 12.16464844 -0.46875 11.33789062 C-0.42234375 10.08782227 -0.42234375 10.08782227 -0.375 8.8125 C-0.33632812 7.96751953 -0.29765625 7.12253906 -0.2578125 6.25195312 C-0.16363721 4.16832476 -0.08073325 2.08419247 0 0 Z " fill="#69605C" transform="translate(225,304)"/>
<path d="M0 0 C0 0.33 0 0.66 0 1 C-1.98 1 -3.96 1 -6 1 C-6 1.66 -6 2.32 -6 3 C-7.38058594 3.02126953 -7.38058594 3.02126953 -8.7890625 3.04296875 C-18.43034451 3.40623498 -26.08236215 5.27630222 -35 9 C-35.66 8.34 -36.32 7.68 -37 7 C-24.83740522 2.15714311 -13.19530287 -0.45501044 0 0 Z " fill="#5C534D" transform="translate(321,37)"/>
<path d="M0 0 C0.66 0.66 1.32 1.32 2 2 C1.80541106 6.76319891 -0.85400803 10.09195284 -3.5625 13.8125 C-3.98724609 14.40998047 -4.41199219 15.00746094 -4.84960938 15.62304688 C-5.89223259 17.08740533 -6.94510452 18.54445735 -8 20 C-8.33 19.34 -8.66 18.68 -9 18 C-8.28735352 16.30419922 -8.28735352 16.30419922 -7.12890625 14.3046875 C-6.51499023 13.23154297 -6.51499023 13.23154297 -5.88867188 12.13671875 C-5.45103516 11.39035156 -5.01339844 10.64398438 -4.5625 9.875 C-4.12873047 9.12089844 -3.69496094 8.36679688 -3.24804688 7.58984375 C-2.17251034 5.72242866 -1.08715861 3.86067303 0 2 C-0.97791504 2.21571655 -0.97791504 2.21571655 -1.97558594 2.43579102 C-4.30810547 2.95031738 -4.30810547 2.95031738 -6.640625 3.46484375 C-8.76878703 3.947556 -10.88532842 4.46163178 -13 5 C-9.4823789 0.92696504 -5.34519015 -0.57785839 0 0 Z " fill="#605752" transform="translate(265,238)"/>
<path d="M0 0 C0.33 0.99 0.66 1.98 1 3 C0.18917969 2.97679687 -0.62164062 2.95359375 -1.45703125 2.9296875 C-8.04737976 2.82227786 -14.11903572 3.14808101 -20.5625 4.5625 C-23.0918708 5.01648963 -25.43586504 5.073261 -28 5 C-19.41570481 -0.72286346 -9.94373358 -0.35797441 0 0 Z " fill="#5C524D" transform="translate(153,141)"/>
<path d="M0 0 C0 1.69567698 -0.01984166 3.39242386 -0.10546875 5.0859375 C-0.27764204 9.89039228 -0.25458574 13.16423823 3 17 C6.08681608 19.12883867 9.32764611 19.49922447 13 20 C13 20.33 13 20.66 13 21 C5.014997 21.62627475 5.014997 21.62627475 1.0625 19.1875 C-2.16382871 15.76563621 -3.29155719 13.70482327 -3.3125 9.0625 C-3.32925781 8.20785156 -3.34601563 7.35320312 -3.36328125 6.47265625 C-2.93504169 3.5578644 -1.92290461 2.18673321 0 0 Z " fill="#605651" transform="translate(333,342)"/>
<path d="M0 0 C2.66929007 0.8657157 4.67741836 1.72191238 6.8125 3.5625 C8.65564675 7.34580123 8.65528416 10.87598336 8 15 C6.1875 18.5625 6.1875 18.5625 4 21 C3.01 21 2.02 21 1 21 C1.474375 20.566875 1.94875 20.13375 2.4375 19.6875 C4.76336255 17.17556844 4.99488131 15.05425812 5.3125 11.6875 C4.94507558 7.35189184 3.61572955 5.40837487 1 2 C0.67 1.34 0.34 0.68 0 0 Z " fill="#69615C" transform="translate(238,340)"/>
<path d="M0 0 C0.90675822 2.72027467 1.11564755 4.56319523 1.25 7.375 C1.62511218 10.97373252 1.97457605 11.96610139 4.25 15 C6.99308075 16.99496782 8.6570446 17.71346097 12 18 C12 18.33 12 18.66 12 19 C8.88901085 19.4552667 6.77252426 19.49460395 4.078125 17.76953125 C-0.7594914 13.72152579 -0.7594914 13.72152579 -2 10 C-2.34710744 3.52066116 -2.34710744 3.52066116 0 0 Z " fill="#5D534E" transform="translate(224,344)"/>
<path d="M0 0 C0.81082031 -0.01224609 1.62164062 -0.02449219 2.45703125 -0.03710938 C3.23691406 -0.03904297 4.01679688 -0.04097656 4.8203125 -0.04296875 C5.52687988 -0.04707764 6.23344727 -0.05118652 6.96142578 -0.05541992 C8.875 0.1875 8.875 0.1875 11.875 2.1875 C11.00617188 2.17589844 10.13734375 2.16429687 9.2421875 2.15234375 C8.08976562 2.14332031 6.93734375 2.13429688 5.75 2.125 C4.04457031 2.10759766 4.04457031 2.10759766 2.3046875 2.08984375 C-0.94420938 2.1823522 -3.93035627 2.6258044 -7.125 3.1875 C-9.80310075 3.29946073 -12.44232686 3.23375299 -15.125 3.1875 C-14.795 2.5275 -14.465 1.8675 -14.125 1.1875 C-9.5534841 -0.2198098 -4.73876259 0.00380318 0 0 Z " fill="#544A44" transform="translate(270.125,274.8125)"/>
<path d="M0 0 C0.66 0.99 1.32 1.98 2 3 C-4.25012173 8.76776422 -10.489297 14.52509066 -17 20 C-17.66 19.67 -18.32 19.34 -19 19 C-18.49549316 18.53102295 -17.99098633 18.0620459 -17.47119141 17.57885742 C-15.18620469 15.45151952 -12.90556769 13.31957413 -10.625 11.1875 C-9.8309375 10.44951172 -9.036875 9.71152344 -8.21875 8.95117188 C-7.07792969 7.88286133 -7.07792969 7.88286133 -5.9140625 6.79296875 C-5.2123291 6.1383667 -4.5105957 5.48376465 -3.78759766 4.80932617 C-1.81279884 2.92523647 -1.81279884 2.92523647 0 0 Z " fill="#716864" transform="translate(198,182)"/>
<path d="M0 0 C0.33 0.66 0.66 1.32 1 2 C0.36191406 2.18175781 -0.27617187 2.36351562 -0.93359375 2.55078125 C-1.75988281 2.80214844 -2.58617187 3.05351562 -3.4375 3.3125 C-4.26121094 3.55613281 -5.08492187 3.79976563 -5.93359375 4.05078125 C-6.95646484 4.52064453 -6.95646484 4.52064453 -8 5 C-8.33 5.99 -8.66 6.98 -9 8 C-12.3 8 -15.6 8 -19 8 C-19.33 7.34 -19.66 6.68 -20 6 C-17.25000537 3.25000537 -14.25480527 3.09398702 -10.5625 2.4375 C-5.2224533 1.46621313 -5.2224533 1.46621313 0 0 Z " fill="#726A66" transform="translate(213,273)"/>
<path d="M0 0 C4.12666074 1.48918627 5.2973363 3.80843004 7.25 7.625 C7.77078125 8.62789063 8.2915625 9.63078125 8.828125 10.6640625 C9.21484375 11.43492187 9.6015625 12.20578125 10 13 C8.68 13 7.36 13 6 13 C4.99491199 11.21118264 3.99607264 9.41885304 3 7.625 C2.1646875 6.12839844 2.1646875 6.12839844 1.3125 4.6015625 C0 2 0 2 0 0 Z " fill="#534943" transform="translate(264,350)"/>
<path d="M0 0 C0.66 0.33 1.32 0.66 2 1 C0.0873614 2.62995302 -1.82980142 4.25399515 -3.75 5.875 C-4.55824219 6.56529297 -4.55824219 6.56529297 -5.3828125 7.26953125 C-8.12143213 9.57397948 -10.6893305 11.60180463 -14 13 C-14.66 12.34 -15.32 11.68 -16 11 C-15.18015625 10.45730469 -14.3603125 9.91460937 -13.515625 9.35546875 C-12.43796875 8.64003906 -11.3603125 7.92460937 -10.25 7.1875 C-9.18265625 6.47980469 -8.1153125 5.77210938 -7.015625 5.04296875 C-4.6207009 3.42050074 -2.29166502 1.76324711 0 0 Z " fill="#5E544F" transform="translate(247,245)"/>
<path d="M0 0 C0.66 0.33 1.32 0.66 2 1 C-3.32699938 4.66231207 -8.59932742 6 -15 6 C-15 5.01 -15 4.02 -15 3 C-14.08476562 2.86722656 -13.16953125 2.73445313 -12.2265625 2.59765625 C-11.03804687 2.42105469 -9.84953125 2.24445313 -8.625 2.0625 C-7.44164062 1.88847656 -6.25828125 1.71445312 -5.0390625 1.53515625 C-2.09297619 1.16537214 -2.09297619 1.16537214 0 0 Z " fill="#675E59" transform="translate(245,268)"/>
<path d="M0 0 C1.77556142 2.66334212 3.50086607 5.34225193 5.1875 8.0625 C5.73792969 8.94035156 6.28835937 9.81820313 6.85546875 10.72265625 C7.23316406 11.47417969 7.61085937 12.22570312 8 13 C7.67 13.66 7.34 14.32 7 15 C6.03958829 13.89764064 5.08175593 12.79303376 4.125 11.6875 C3.59132812 11.07261719 3.05765625 10.45773437 2.5078125 9.82421875 C1 8 1 8 -1 5 C-0.625 2.3125 -0.625 2.3125 0 0 Z " fill="#584E49" transform="translate(197,303)"/>
<path d="M0 0 C3.28782031 1.52921875 6.16292916 3.41328741 9.125 5.5 C9.99382812 6.1084375 10.86265625 6.716875 11.7578125 7.34375 C14 9 14 9 16 11 C15.01 11.495 15.01 11.495 14 12 C8.38053494 8.5475182 3.9320706 5.32732146 0 0 Z " fill="#6A615C" transform="translate(230,288)"/>
<path d="M0 0 C0.99 0.33 1.98 0.66 3 1 C-0.3 4.3 -3.6 7.6 -7 11 C-7.66 10.34 -8.32 9.68 -9 9 C-6.03 6.03 -3.06 3.06 0 0 Z " fill="#574D48" transform="translate(222,160)"/>
<path d="M0 0 C0.66 0.33 1.32 0.66 2 1 C-5.11389522 7.51936219 -5.11389522 7.51936219 -10 9 C-9.77734375 7.17578125 -9.77734375 7.17578125 -9 5 C-7.00390625 3.48046875 -7.00390625 3.48046875 -4.5625 2.1875 C-3.35787109 1.52814453 -3.35787109 1.52814453 -2.12890625 0.85546875 C-1.42636719 0.57316406 -0.72382813 0.29085938 0 0 Z " fill="#514741" transform="translate(238,261)"/>
<path d="M0 0 C2.97 0 5.94 0 9 0 C8.25 5.75 8.25 5.75 6 8 C5.67 6.02 5.34 4.04 5 2 C3.35 1.67 1.7 1.34 0 1 C0 0.67 0 0.34 0 0 Z " fill="#706863" transform="translate(344,351)"/>
<path d="M0 0 C1.72945653 0.14235457 3.45855654 0.28904382 5.1875 0.4375 C6.63189453 0.55931641 6.63189453 0.55931641 8.10546875 0.68359375 C10.78649602 0.97666151 13.3662986 1.42703754 16 2 C13 4 13 4 10.87890625 3.828125 C10.11449219 3.63734375 9.35007813 3.4465625 8.5625 3.25 C7.80066406 3.06953125 7.03882813 2.8890625 6.25390625 2.703125 C4.0168822 2.00526654 2.06077862 1.10784454 0 0 Z " fill="#5D534E" transform="translate(205,280)"/>
<path d="M0 0 C3.12290635 0.48578543 5.99580359 0.9986012 9 2 C8.67 2.99 8.34 3.98 8 5 C5.36 4.01 2.72 3.02 0 2 C0 1.34 0 0.68 0 0 Z " fill="#564C46" transform="translate(245,299)"/>
<path d="M0 0 C-4.95 2.475 -4.95 2.475 -10 5 C-10.66 4.34 -11.32 3.68 -12 3 C-10.75823305 2.29773859 -9.50614401 1.61370891 -8.25 0.9375 C-7.20585938 0.36322266 -7.20585938 0.36322266 -6.140625 -0.22265625 C-4 -1 -4 -1 0 0 Z " fill="#4F453F" transform="translate(127,147)"/>
<path d="M0 0 C3.875 1.875 3.875 1.875 5 3 C5.04063832 4.66617115 5.042721 6.33388095 5 8 C3.02 8.99 3.02 8.99 1 10 C1.20625 8.906875 1.4125 7.81375 1.625 6.6875 C2.40346525 2.9161599 2.40346525 2.9161599 0 0 Z " fill="#554B46" transform="translate(267,339)"/>
<path d="M0 0 C0.66 0.33 1.32 0.66 2 1 C1.67 1.99 1.34 2.98 1 4 C3.97 4.495 3.97 4.495 7 5 C7 5.33 7 5.66 7 6 C4.03 6 1.06 6 -2 6 C-2.33 5.01 -2.66 4.02 -3 3 C-2.01 2.01 -1.02 1.02 0 0 Z " fill="#655C57" transform="translate(182,272)"/>
<path d="M0 0 C0.66 0 1.32 0 2 0 C1.39305845 3.15330554 0.3583335 5.18888867 -1.5625 7.75 C-2.24505859 8.67039063 -2.24505859 8.67039063 -2.94140625 9.609375 C-3.29074219 10.06828125 -3.64007813 10.5271875 -4 11 C-4.33 10.34 -4.66 9.68 -5 9 C-4.00390625 6.8359375 -4.00390625 6.8359375 -2.5625 4.375 C-2.08941406 3.55773437 -1.61632812 2.74046875 -1.12890625 1.8984375 C-0.75636719 1.27195313 -0.38382812 0.64546875 0 0 Z " fill="#584E49" transform="translate(261,247)"/>
<path d="M0 0 C0.66 0.33 1.32 0.66 2 1 C1.67 1.99 1.34 2.98 1 4 C-2.5625 5.6875 -2.5625 5.6875 -6 7 C-5.8125 5.1875 -5.8125 5.1875 -5 3 C-2.5625 1.1875 -2.5625 1.1875 0 0 Z " fill="#493E38" transform="translate(349,167)"/>
<path d="M0 0 C1.8125 0.1875 1.8125 0.1875 4 1 C5.75 3.5625 5.75 3.5625 7 6 C6.01 6 5.02 6 4 6 C1.8125 3 1.8125 3 0 0 Z " fill="#504640" transform="translate(298,339)"/>
<path d="M0 0 C4.67692308 1.47692308 4.67692308 1.47692308 6.3125 4.125 C6.539375 4.74375 6.76625 5.3625 7 6 C6.34 6.66 5.68 7.32 5 8 C1.125 2.25 1.125 2.25 0 0 Z " fill="#594F4A" transform="translate(238,340)"/>
<path d="M0 0 C1.85776765 3.13498292 2.20140476 5.37471432 2 9 C1.34 9 0.68 9 0 9 C-0.87890625 2.84765625 -0.87890625 2.84765625 -1 1 C-0.67 0.67 -0.34 0.34 0 0 Z " fill="#41352F" transform="translate(195,296)"/>
</svg>
