<?xml version="1.0" encoding="UTF-8"?>
<svg version="1.1" xmlns="http://www.w3.org/2000/svg" width="1462" height="1297">
<path d="M0 0 C1.02470398 0.00310181 2.04940796 0.00620361 3.10516357 0.00939941 C18.36810621 0.06342123 33.45837175 0.40647237 48.625 2.25 C49.70604004 2.37358887 50.78708008 2.49717773 51.90087891 2.62451172 C102.00282879 8.45360616 155.36448453 20.43092076 200.625 43.25 C201.50317383 43.69230957 202.38134766 44.13461914 203.28613281 44.59033203 C212.8306907 49.43626242 222.26345923 54.37257176 231.25 60.203125 C234.26841888 61.53361227 235.52879667 61.3204703 238.625 60.25 C241.29667051 58.84716623 241.29667051 58.84716623 243.9375 57.0625 C244.89785156 56.43730469 245.85820313 55.81210937 246.84765625 55.16796875 C249.27977255 53.48840602 251.57434818 51.72718168 253.875 49.875 C257.39810758 47.20204926 260.07518986 45.99246358 264.625 46.25 C269.13219466 49.4551162 270.64316179 52.9846098 271.625 58.25 C272.07898843 62.71737392 272.30598946 67.19235172 272.54296875 71.67578125 C273.43980208 86.6240889 274.8489548 101.4900029 276.49194336 116.3737793 C276.79117957 119.08754494 277.08267899 121.80195948 277.36694336 124.51733398 C279.57575223 145.60484519 282.55173411 166.47268716 287.4375 187.125 C288.97558516 194.12987929 290.53613111 202.40074439 287.2421875 209.03515625 C285.20821783 211.82081036 283.98160143 212.48713604 280.625 213.25 C276.60499739 213.17821424 274.4006834 212.88000316 271.25390625 210.32421875 C267.63453227 206.49936918 265.46677954 201.76111033 263.0625 197.125 C247.31822907 167.60662818 226.51102023 137.40384032 200.515625 115.83203125 C198.30899781 113.98557668 196.2296663 112.02429988 194.125 110.0625 C187.34778659 103.95155642 180.00444236 98.60279915 172.625 93.25 C171.05105469 92.10724609 171.05105469 92.10724609 169.4453125 90.94140625 C123.70648064 58.56781747 72.22423433 38.24200336 16.625 31.25 C15.80894287 31.1454248 14.99288574 31.04084961 14.15209961 30.93310547 C-47.38693856 24.19257008 -110.52383131 38.34793998 -159.4453125 77.03125 C-166.83588212 83.00706372 -173.66744491 89.5214838 -180.375 96.25 C-181.22578125 97.07757813 -182.0765625 97.90515625 -182.953125 98.7578125 C-198.09799486 113.59269965 -210.72908203 130.93990458 -221.375 149.25 C-221.89175293 150.1174585 -221.89175293 150.1174585 -222.41894531 151.00244141 C-271.41894479 233.33562439 -275.9421832 341.94755326 -253.375 433.25 C-239.66919371 486.42593167 -214.22978676 535.43121454 -177.375 576.25 C-176.37888948 577.36977675 -175.38279546 578.48956817 -174.38671875 579.609375 C-163.15274726 592.1221308 -150.82126332 603.17005183 -137.375 613.25 C-136.82408691 613.66846191 -136.27317383 614.08692383 -135.70556641 614.51806641 C-81.62977347 655.4139818 -13.21057206 668.69164663 53.23144531 659.75927734 C62.14720566 658.42127187 70.89449502 656.4811669 79.625 654.25 C80.38135742 654.06211914 81.13771484 653.87423828 81.91699219 653.68066406 C116.53232259 644.937215 146.98906964 625.65786184 172.625 601.25 C173.27984375 600.63640625 173.9346875 600.0228125 174.609375 599.390625 C194.95756589 579.78915671 203.19684162 556.34391656 203.8258667 528.48120117 C203.93675777 520.88184417 203.95683816 513.28263004 203.95951414 505.68260002 C203.96094923 503.38749629 203.96524382 501.09241547 203.97050858 498.7973175 C203.98892183 490.75825517 203.99718939 482.71925851 203.99560547 474.68017578 C203.99440346 467.23647945 204.01553993 459.79307273 204.0470928 452.34944963 C204.07338778 445.91239858 204.08396741 439.47544147 204.08269465 433.03833723 C204.08218929 429.21387437 204.08763425 425.3896702 204.10905075 421.56526184 C205.07263323 393.30430155 205.07263323 393.30430155 193.20703125 368.62109375 C180.78888839 356.38692338 157.0704446 355.10035042 140.62939453 353.46435547 C133.64520029 352.68531595 127.10650794 351.0985065 121.5625 346.5625 C120.04196879 342.81185635 119.83714506 339.21845449 120.625 335.25 C123.36793713 332.20229207 125.67518307 331.00750302 129.625 330.25 C131.36818477 330.16433459 133.11435106 330.13226159 134.8596344 330.13647461 C136.45011345 330.13658035 136.45011345 330.13658035 138.07272339 330.13668823 C139.23152008 330.14185455 140.39031677 330.14702087 141.58422852 330.15234375 C142.80940689 330.15380402 144.03458527 330.15526428 145.29689026 330.1567688 C147.96400045 330.16057896 150.631036 330.16620109 153.29812813 330.17483521 C157.54428487 330.1884257 161.79043123 330.19426882 166.03660583 330.19897461 C175.84739926 330.21101151 185.65816629 330.23282796 195.46894073 330.25520325 C204.40362706 330.27554324 213.33830289 330.29361584 222.27300781 330.30341816 C225.78771437 330.30751501 229.3023888 330.31366671 232.81707954 330.32516479 C254.20578302 330.39434373 275.5444652 330.03476647 296.890625 328.609375 C297.69396617 328.55587513 298.49730734 328.50237526 299.32499218 328.44725418 C302.28388136 328.24903394 305.24222011 328.04812318 308.19921875 327.82324219 C310.47058129 327.65298511 312.74253107 327.50440699 315.015625 327.359375 C316.31532227 327.26624023 317.61501953 327.17310547 318.95410156 327.07714844 C323.37024912 327.28509154 325.74864557 328.16458142 329.625 330.25 C331.75312092 333.44218138 331.9236123 335.35419432 332.0859375 339.1171875 C331.39764039 342.30201991 329.87266002 343.92678838 327.625 346.25 C324.99609375 347.69140625 324.99609375 347.69140625 322.0625 348.8125 C321.00160156 349.22886719 319.94070313 349.64523437 318.84765625 350.07421875 C316.82363323 350.81268048 314.7906135 351.52737407 312.74609375 352.20703125 C302.15731788 355.74666472 293.29899606 361.38908572 287.625 371.25 C283.71599905 380.37777105 281.46081314 388.56073522 281.52493286 398.47286987 C281.52619513 399.29708061 281.52745741 400.12129135 281.52875793 400.97047818 C281.53413222 403.73018995 281.54665633 406.48982338 281.55908203 409.24951172 C281.56427578 411.22901289 281.5689838 413.20851539 281.57324219 415.1880188 C281.58318103 419.45011471 281.59602991 423.71218859 281.61096573 427.97426987 C281.63402876 434.71437489 281.6473325 441.45447691 281.65866089 448.1946106 C281.69209547 467.36073587 281.73373382 486.52681747 281.79638672 505.69287109 C281.83090903 516.27859983 281.85471845 526.86429624 281.86659515 537.45007527 C281.87336669 543.05115998 281.88582619 548.65210749 281.91162491 554.2531395 C281.93588856 559.52100093 281.94626969 564.78870599 281.94602966 570.05662155 C281.94845046 571.98876814 281.95602381 573.92091626 281.96915817 575.85301971 C281.98635641 578.49326484 281.98496297 581.1328828 281.97903442 583.77316284 C281.99316539 584.91641944 281.99316539 584.91641944 282.00758183 586.08277214 C281.96943304 591.17146318 280.98185417 594.71929521 278.625 599.25 C276.92578125 600.44921875 276.92578125 600.44921875 274.9375 600.9375 C274.13828125 601.1540625 273.3390625 601.370625 272.515625 601.59375 C270.38141727 602.07827284 268.24577661 602.55649409 266.109375 603.03125 C243.89801249 608.0930327 224.80680347 619.88160921 205.5 631.5625 C138.78610935 671.89012307 65.47637996 694.85152619 -12.8125 694.5625 C-13.8492688 694.56067719 -14.8860376 694.55885437 -15.95422363 694.55697632 C-110.49935981 694.27907278 -193.77666932 661.1479354 -260.58251953 594.22558594 C-266.25346103 588.48306173 -271.49957325 582.68907713 -276.375 576.25 C-277.41935846 574.90920941 -278.46504562 573.5694532 -279.51171875 572.23046875 C-297.375 549.26485799 -297.375 549.26485799 -297.375 545.25 C-298.035 545.25 -298.695 545.25 -299.375 545.25 C-299.70371094 546.40628906 -299.70371094 546.40628906 -300.0390625 547.5859375 C-301.85969437 552.57936643 -304.28007891 557.17500149 -306.75 561.875 C-307.28455811 562.89335938 -307.81911621 563.91171875 -308.36987305 564.9609375 C-317.96941153 583.0650957 -329.0784157 600.17137021 -340.375 617.25 C-341.04112305 618.2620752 -341.70724609 619.27415039 -342.39355469 620.31689453 C-350.64419995 632.85114818 -359.07660767 645.20056256 -367.95361328 657.29931641 C-369.66672151 659.65035294 -371.34352609 662.02548376 -373.01806641 664.40405273 C-379.60117205 673.73996852 -386.57282472 682.78216475 -393.52734375 691.84277344 C-395.13523283 693.93761835 -396.74023477 696.03461952 -398.34375 698.1328125 C-406.96062484 709.39395955 -415.90104637 720.38770786 -424.85449219 731.38134766 C-426.16824732 732.995908 -427.4789421 734.61295764 -428.7890625 736.23046875 C-434.34753669 743.07244516 -440.06781292 749.76604533 -445.82226562 756.44287109 C-447.36145982 758.23424144 -448.89287119 760.03195887 -450.421875 761.83203125 C-456.13006868 768.5441369 -461.95061396 775.12202685 -467.9296875 781.59375 C-472.07888665 786.10086728 -476.08200804 790.72519731 -480.046875 795.39453125 C-486.11874735 802.53413964 -492.3235257 809.50900935 -498.70703125 816.37109375 C-502.9424635 820.9413918 -507.01026191 825.64164663 -511.04296875 830.390625 C-517.1166288 837.53110357 -523.32227772 844.50766781 -529.70703125 851.37109375 C-533.00854575 854.93363575 -536.21013224 858.56630146 -539.375 862.25 C-540.32281177 863.3438409 -541.27073935 864.43758146 -542.21875 865.53125 C-544.82673005 868.54594929 -547.41604148 871.57581026 -549.99169922 874.61816406 C-551.18776667 876.0291268 -552.39196849 877.43318654 -553.59765625 878.8359375 C-557.59467111 883.67308924 -559.86067241 888.14942313 -561.375 894.25 C-547.79911567 909.42051201 -511.92400126 907.05685983 -492.96533203 908.1706543 C-470.93999384 909.3785129 -448.89378125 909.46248535 -426.84162521 909.49542618 C-424.35933948 909.49991529 -421.87708134 909.50761565 -419.39480591 909.51596069 C-402.17886153 909.56600978 -385.02059757 909.35180018 -367.83203125 908.3203125 C-367.13909407 908.27881325 -366.44615688 908.237314 -365.7322216 908.19455719 C-314.22187964 905.03185199 -265.2525524 895.59180816 -228.375 857.25 C-222.25301086 851.06590372 -216.45196733 845.25624912 -207.25 844.875 C-201.16071429 845.46428571 -201.16071429 845.46428571 -198.375 848.25 C-197.4489405 853.13285916 -197.91490108 856.0619799 -200.5625 860.25 C-204.23406476 865.28652295 -208.24884727 870.0755773 -212.20727539 874.88818359 C-216.09809625 879.62832009 -219.84439037 884.45156964 -223.5 889.375 C-232.15333578 901.01769562 -241.20502011 912.31687187 -250.37109375 923.55859375 C-252.80616179 926.54643058 -255.22237413 929.54847033 -257.625 932.5625 C-264.82553398 941.58195801 -272.07313812 950.60335038 -279.74121094 959.23344421 C-281.50908042 961.33741674 -281.50908042 961.33741674 -283.25097656 964.19587708 C-286.68840611 969.1625666 -289.13952983 972.64082191 -295.11671448 974.26963806 C-299.67010062 974.70019205 -304.19599414 974.44194899 -308.75390625 974.203125 C-310.49154313 974.15790442 -312.22933647 974.11839093 -313.96722412 974.08413696 C-317.68558306 973.99987598 -321.40012641 973.87860752 -325.11636353 973.72747803 C-330.99401279 973.48928516 -336.87194886 973.33447823 -342.75268555 973.19580078 C-348.84052566 973.04926018 -354.92805285 972.89920195 -361.01509094 972.72207642 C-380.17830747 972.16946812 -399.32986297 972.07314999 -418.49996948 972.11560059 C-422.73857402 972.12479497 -426.9770783 972.1231592 -431.21568584 972.11730957 C-449.96084302 972.09390983 -468.64709347 972.36300999 -487.375 973.25 C-488.47161821 977.66109819 -488.50427248 981.95807734 -488.47506714 986.47286987 C-488.47380487 987.29708061 -488.47254259 988.12129135 -488.47124207 988.97047818 C-488.46586778 991.73018995 -488.45334367 994.48982338 -488.44091797 997.24951172 C-488.43572422 999.22901289 -488.4310162 1001.20851539 -488.42675781 1003.1880188 C-488.41681897 1007.45011471 -488.40397009 1011.71218859 -488.38903427 1015.97426987 C-488.36597124 1022.71437489 -488.3526675 1029.45447691 -488.34133911 1036.1946106 C-488.30790453 1055.36073587 -488.26626618 1074.52681747 -488.20361328 1093.69287109 C-488.16909097 1104.27859983 -488.14528155 1114.86429624 -488.13340485 1125.45007527 C-488.12663331 1131.05115998 -488.11417381 1136.65210749 -488.08837509 1142.2531395 C-488.06411144 1147.52100093 -488.05373031 1152.78870599 -488.05397034 1158.05662155 C-488.05154954 1159.98876814 -488.04397619 1161.92091626 -488.03084183 1163.85301971 C-488.01364359 1166.49326484 -488.01503703 1169.1328828 -488.02096558 1171.77316284 C-488.01154493 1172.53533391 -488.00212429 1173.29750498 -487.99241817 1174.08277214 C-488.03056696 1179.17146318 -489.01814583 1182.71929521 -491.375 1187.25 C-493.07421875 1188.44921875 -493.07421875 1188.44921875 -495.0625 1188.9375 C-495.86171875 1189.1540625 -496.6609375 1189.370625 -497.484375 1189.59375 C-499.61858273 1190.07827284 -501.75422339 1190.55649409 -503.890625 1191.03125 C-526.10198751 1196.0930327 -545.19319653 1207.88160921 -564.5 1219.5625 C-631.21389065 1259.89012307 -704.52362004 1282.85152619 -782.8125 1282.5625 C-783.8492688 1282.56067719 -784.8860376 1282.55885437 -785.95422363 1282.55697632 C-880.49935981 1282.27907278 -963.77666932 1249.1479354 -1030.58251953 1182.22558594 C-1036.25370301 1176.48281669 -1041.49790174 1170.68812247 -1046.375 1164.25 C-1047.39583209 1162.94429248 -1048.41808814 1161.63969757 -1049.44140625 1160.3359375 C-1093.37947873 1104.04732143 -1117.11560233 1034.01489648 -1117.61328125 962.55859375 C-1117.62302979 961.38659927 -1117.63277832 960.2146048 -1117.64282227 959.00709534 C-1117.81577384 932.82038916 -1117.53458014 907.13714874 -1113.375 881.25 C-1113.10212158 879.50831543 -1113.10212158 879.50831543 -1112.82373047 877.73144531 C-1106.63991245 839.47908757 -1094.08999547 803.58841419 -1076.375 769.25 C-1075.83488281 768.1878125 -1075.29476563 767.125625 -1074.73828125 766.03125 C-1067.24177686 751.65538687 -1058.39647481 737.98741481 -1048.375 725.25 C-1047.47961128 724.08789975 -1046.58512311 722.92510524 -1045.69140625 721.76171875 C-1040.88880985 715.54152376 -1035.9767001 709.50380916 -1030.640625 703.7265625 C-1028.79267481 701.70656178 -1027.00325533 699.65728519 -1025.21875 697.58203125 C-1020.88991147 692.62388001 -1016.27996409 687.96306265 -1011.625 683.3125 C-1010.73683594 682.4251416 -1009.84867188 681.5377832 -1008.93359375 680.62353516 C-1002.99949136 674.74482062 -996.97659521 669.36597474 -990.375 664.25 C-988.56056464 662.68974783 -986.74820007 661.12708549 -984.9375 659.5625 C-940.70563991 622.8256406 -885.85009102 601.01212866 -829.4375 592.0625 C-828.47537598 591.9075708 -827.51325195 591.7526416 -826.52197266 591.59301758 C-807.74795415 588.77399911 -788.96069768 587.89679036 -770 588 C-768.46294403 588.00465271 -768.46294403 588.00465271 -766.89483643 588.00939941 C-751.63189379 588.06342123 -736.54162825 588.40647237 -721.375 590.25 C-720.29395996 590.37358887 -719.21291992 590.49717773 -718.09912109 590.62451172 C-667.99717121 596.45360616 -614.63551547 608.43092076 -569.375 631.25 C-568.49682617 631.69230957 -567.61865234 632.13461914 -566.71386719 632.59033203 C-557.1693093 637.43626242 -547.73654077 642.37257176 -538.75 648.203125 C-535.73158112 649.53361227 -534.47120333 649.3204703 -531.375 648.25 C-528.70332949 646.84716623 -528.70332949 646.84716623 -526.0625 645.0625 C-525.10214844 644.43730469 -524.14179687 643.81210937 -523.15234375 643.16796875 C-520.72022745 641.48840602 -518.42565182 639.72718168 -516.125 637.875 C-512.60189242 635.20204926 -509.92481014 633.99246358 -505.375 634.25 C-500.86846319 637.4546484 -499.35682919 640.98500721 -498.375 646.25 C-497.92669663 650.688781 -497.70560095 655.13526149 -497.47265625 659.58984375 C-496.51377051 675.6854831 -494.85767911 691.66681554 -493.05102539 707.6864624 C-492.72671133 710.57715626 -492.40909647 713.46857103 -492.09156704 716.36001682 C-491.78210731 719.17493808 -491.47015218 721.9895778 -491.15727425 724.80412102 C-490.93900233 726.76774935 -490.72161847 728.73147634 -490.5042572 730.69520569 C-490.37064285 731.87932541 -490.2370285 733.06344513 -490.09936523 734.28344727 C-489.98326401 735.31881119 -489.86716278 736.35417511 -489.74754333 737.4209137 C-489.39955696 740.06351495 -488.93204332 742.64430236 -488.375 745.25 C-479.47557763 733.0708004 -470.8187021 720.7492294 -462.375 708.25 C-461.9305957 707.59435059 -461.48619141 706.93870117 -461.02832031 706.26318359 C-444.17635236 681.37382432 -428.85695706 655.57962356 -414.375 629.25 C-413.91883301 628.42709473 -413.46266602 627.60418945 -412.99267578 626.75634766 C-385.38018341 576.76510331 -357.44720174 511.03133763 -373.44140625 453.2578125 C-377.45778835 440.29404452 -383.56921462 429.51732653 -392.375 419.25 C-392.83132813 418.64929688 -393.28765625 418.04859375 -393.7578125 417.4296875 C-411.94323494 394.0173173 -445.81752688 384.44616329 -473.80619812 380.90222168 C-482.31482796 379.92762902 -490.82034088 379.89933523 -499.375 379.9375 C-500.65309036 379.94023422 -500.65309036 379.94023422 -501.95700073 379.94302368 C-542.62738918 380.08895243 -581.51753217 390.02773409 -617.375 409.25 C-617.96442383 409.56404785 -618.55384766 409.8780957 -619.16113281 410.20166016 C-630.81054441 416.46768071 -641.5459886 423.98536402 -652.21484375 431.7734375 C-653.42672363 432.65672729 -653.42672363 432.65672729 -654.66308594 433.55786133 C-656.22910636 434.70305758 -657.79116012 435.85370367 -659.34863281 437.01049805 C-665.22225781 441.32025382 -669.48839069 443.54076204 -676.9375 443.6875 C-678.05253906 443.72746094 -679.16757812 443.76742188 -680.31640625 443.80859375 C-683.375 443.25 -683.375 443.25 -685.73828125 440.9140625 C-688.01560896 437.20729043 -688.0629942 435.58436348 -687.375 431.25 C-683.8317216 421.35177288 -677.61247245 414.54846239 -670.375 407.25 C-669.6428125 406.46882813 -668.910625 405.68765625 -668.15625 404.8828125 C-662.33205624 398.77610188 -655.81986249 393.70388901 -649.12744141 388.60107422 C-647.50801522 387.35255032 -645.9147892 386.07023942 -644.32421875 384.78515625 C-602.57539775 351.37526967 -549.08757858 333.45818624 -496.375 328.25 C-495.45525391 328.1557373 -494.53550781 328.06147461 -493.58789062 327.96435547 C-482.99266575 327.00722381 -472.38002451 327.00647784 -461.75 327 C-460.75289001 326.99932526 -459.75578003 326.99865051 -458.72845459 326.99795532 C-420.79577854 327.0386287 -382.52587484 332.76663336 -348.375 350.25 C-348.33536133 349.40743652 -348.29572266 348.56487305 -348.25488281 347.69677734 C-345.3789873 288.94747528 -333.45129662 233.73418436 -306.375 181.25 C-305.83488281 180.1878125 -305.29476562 179.125625 -304.73828125 178.03125 C-297.24177686 163.65538687 -288.39647481 149.98741481 -278.375 137.25 C-277.47961128 136.08789975 -276.58512311 134.92510524 -275.69140625 133.76171875 C-270.88880985 127.54152376 -265.9767001 121.50380916 -260.640625 115.7265625 C-258.79267481 113.70656178 -257.00325533 111.65728519 -255.21875 109.58203125 C-250.88991147 104.62388001 -246.27996409 99.96306265 -241.625 95.3125 C-240.73683594 94.4251416 -239.84867188 93.5377832 -238.93359375 92.62353516 C-232.99949136 86.74482062 -226.97659521 81.36597474 -220.375 76.25 C-218.56056464 74.68974783 -216.74820007 73.12708549 -214.9375 71.5625 C-170.70563991 34.8256406 -115.85009102 13.01212866 -59.4375 4.0625 C-58.47537598 3.9075708 -57.51325195 3.7526416 -56.52197266 3.59301758 C-37.74795415 0.77399911 -18.96069768 -0.10320964 0 0 Z M-950.375 683.25 C-951.29796875 684.14976562 -952.2209375 685.04953125 -953.171875 685.9765625 C-968.61471714 701.07380511 -981.52662991 718.59170373 -992.375 737.25 C-992.71950195 737.82830566 -993.06400391 738.40661133 -993.41894531 739.00244141 C-1042.41894479 821.33562439 -1046.9421832 929.94755326 -1024.375 1021.25 C-1010.66807339 1074.43027831 -985.22619321 1123.42397683 -948.375 1164.25 C-947.39054196 1165.35799914 -946.40616541 1166.4660707 -945.421875 1167.57421875 C-933.8849501 1180.43846879 -921.20965241 1191.91149763 -907.375 1202.25 C-906.55080566 1202.87551758 -906.55080566 1202.87551758 -905.70996094 1203.51367188 C-851.63429354 1244.4133802 -783.21263659 1257.69192419 -716.76855469 1248.75927734 C-707.85279434 1247.42127187 -699.10550498 1245.4811669 -690.375 1243.25 C-689.61864258 1243.06211914 -688.86228516 1242.87423828 -688.08300781 1242.68066406 C-653.48077066 1233.94052222 -622.98958852 1214.66799461 -597.375 1190.25 C-596.64667969 1189.56292969 -595.91835938 1188.87585937 -595.16796875 1188.16796875 C-574.49858978 1168.15087787 -565.76543673 1144.9447022 -565.18786621 1116.44000244 C-565.09440207 1108.78836792 -565.09304723 1101.13706595 -565.10634899 1093.48501062 C-565.11147362 1089.60734443 -565.1067004 1085.72968691 -565.10357666 1081.85202026 C-565.09995821 1075.35152458 -565.1046827 1068.85107465 -565.11425781 1062.35058594 C-565.12516585 1054.85913895 -565.12159123 1047.36780066 -565.110605 1039.87635624 C-565.10150419 1033.40883018 -565.10025965 1026.94133666 -565.10548234 1020.47380626 C-565.10858319 1016.62614655 -565.10906314 1012.77853783 -565.10240936 1008.9308815 C-565.09659462 1005.31753168 -565.10070752 1001.70432117 -565.11219788 998.09098625 C-565.11606341 996.14882977 -565.11019621 994.20666137 -565.10394287 992.26451111 C-565.13705611 985.35362939 -565.68535756 978.96071788 -567.375 972.25 C-575.05321721 972.22472053 -582.73141781 972.20694831 -590.40966797 972.19506836 C-593.01025815 972.19010479 -595.61084565 972.18333175 -598.21142578 972.17456055 C-613.19072581 972.12538169 -628.11061547 972.30582615 -643.07373047 973.01196289 C-650.19611215 973.34584195 -657.30747468 973.46931673 -664.4375 973.5 C-665.70142578 973.520625 -666.96535156 973.54125 -668.26757812 973.5625 C-679.84712049 973.61133307 -679.84712049 973.61133307 -685.375 970.25 C-686.6875 967.625 -686.6875 967.625 -686.375 964.25 C-679.35761101 949.07075514 -661.86294651 934.57988223 -649.23046875 923.88671875 C-646.28745346 921.29066948 -643.57526379 918.47181037 -640.84375 915.65625 C-638.92695625 913.78798267 -637.00032452 912.06587688 -634.96508789 910.33569336 C-629.20819074 905.311961 -623.85879407 899.87800535 -618.46484375 894.47265625 C-617.32733967 893.33582754 -616.18968733 892.19914717 -615.05189514 891.06260681 C-612.67937314 888.69155079 -610.30864759 886.31871727 -607.93920898 883.94458008 C-604.92134088 880.92101539 -601.89900424 877.90196367 -598.87529659 874.88424015 C-596.52872268 872.54130167 -594.18456265 870.1959596 -591.84109688 867.84991264 C-590.72840043 866.73655516 -589.6149775 865.62392319 -588.50077629 864.51207161 C-583.11282872 859.13299824 -577.77065839 853.75464896 -572.83399963 847.95054626 C-570.12019749 844.78745699 -567.2328971 841.78241007 -564.375 838.75 C-559.60847275 833.66400209 -554.89993167 828.55341454 -550.375 823.25 C-549.48853572 822.21722944 -548.60178965 821.18470072 -547.71484375 820.15234375 C-545.65849779 817.75772736 -543.60566532 815.36015261 -541.5546875 812.9609375 C-539.48529302 810.5417862 -537.40722693 808.13061267 -535.3203125 805.7265625 C-530.21240002 799.83110098 -525.2033876 793.87755294 -520.375 787.75 C-519.93019287 787.18667969 -519.48538574 786.62335938 -519.02709961 786.04296875 C-516.29749057 782.54472769 -513.79245588 778.96571923 -511.375 775.25 C-524.09304234 753.52550727 -539.02646186 734.22974615 -556.125 715.8125 C-556.72691162 715.16192627 -557.32882324 714.51135254 -557.94897461 713.84106445 C-561.6357215 709.91838189 -565.48617892 706.30725505 -569.57128906 702.80200195 C-571.72790254 700.94634523 -573.79670029 699.00508985 -575.875 697.0625 C-582.65221341 690.95155642 -589.99555764 685.60279915 -597.375 680.25 C-598.42429687 679.48816406 -599.47359375 678.72632813 -600.5546875 677.94140625 C-646.29351936 645.56781747 -697.77576567 625.24200336 -753.375 618.25 C-754.19105713 618.1454248 -755.00711426 618.04084961 -755.84790039 617.93310547 C-828.29923647 609.99731692 -898.71902251 631.43459049 -950.375 683.25 Z " fill="#000000" transform="translate(1128.375,5.75)"/>
</svg>
